<svg xmlns="http://www.w3.org/2000/svg" width="25" height="24" viewBox="0 0 25 24" fill="none">
  <g clip-path="url(#clip0_663_582)">
    <path d="M24.2 12C24.2 5.3726 18.8274 2.67029e-05 12.2 2.67029e-05C5.57253 2.67029e-05 0.199951 5.3726 0.199951 12C0.199951 17.9896 4.58818 22.954 10.325 23.8542V15.4688H7.27808V12H10.325V9.35628C10.325 6.34878 12.1165 4.68753 14.8575 4.68753C16.1704 4.68753 17.5437 4.9219 17.5437 4.9219V7.87503H16.0305C14.5398 7.87503 14.075 8.80003 14.075 9.74902V12H17.4031L16.871 15.4688H14.075V23.8542C19.8117 22.954 24.2 17.9896 24.2 12Z" fill="#1877F2"></path>
    <path d="M16.871 15.4688L17.4031 12H14.075V9.74899C14.075 8.80001 14.5398 7.875 16.0305 7.875H17.5437V4.92188C17.5437 4.92188 16.1704 4.6875 14.8575 4.6875C12.1165 4.6875 10.325 6.34875 10.325 9.35625V12H7.27808V15.4688H10.325V23.8542C10.9359 23.9501 11.5621 24 12.2 24C12.8378 24 13.464 23.9501 14.075 23.8542V15.4688H16.871Z" fill="white"></path>
  </g>
  <defs>
    <clipPath id="clip0_663_582">
      <rect width="24" height="24" fill="white" transform="translate(0.199951)"></rect>
    </clipPath>
  </defs>
</svg>