<svg xmlns="http://www.w3.org/2000/svg" width="25" height="24" viewBox="0 0 25 24" fill="none">
  <path d="M17.5999 7H13.5999V9H17.5999C19.2499 9 20.5999 10.35 20.5999 12C20.5999 13.65 19.2499 15 17.5999 15H13.5999V17H17.5999C20.3599 17 22.5999 14.76 22.5999 12C22.5999 9.24 20.3599 7 17.5999 7ZM11.5999 15H7.59985C5.94985 15 4.59985 13.65 4.59985 12C4.59985 10.35 5.94985 9 7.59985 9H11.5999V7H7.59985C4.83985 7 2.59985 9.24 2.59985 12C2.59985 14.76 4.83985 17 7.59985 17H11.5999V15ZM8.59985 11H16.5999V13H8.59985V11Z" fill="#3067F0"></path>
</svg>