<svg xmlns="http://www.w3.org/2000/svg" width="25" height="24" viewBox="0 0 25 24" fill="none">
  <g clip-path="url(#clip0_663_592)">
    <path d="M12.8092 24.0187C19.4417 24.0187 24.8185 18.6419 24.8185 12.0094C24.8185 5.37677 19.4417 0 12.8092 0C6.17657 0 0.799805 5.37677 0.799805 12.0094C0.799805 18.6419 6.17657 24.0187 12.8092 24.0187Z" fill="url(#paint0_linear_663_592)"></path>
    <path fill-rule="evenodd" clip-rule="evenodd" d="M6.22454 11.8784C9.72259 10.3445 12.0609 9.35308 13.2394 8.86672C16.569 7.48247 17.2612 7.23929 17.7101 7.22058C17.8037 7.22058 18.0281 7.23929 18.1778 7.35152C18.29 7.44506 18.3274 7.576 18.3461 7.66953C18.3648 7.76306 18.3835 7.96883 18.3648 8.13718C18.1778 10.0265 17.4108 14.6469 16.9993 16.7607C16.8309 17.6586 16.4942 17.9579 16.1762 17.9953C15.4841 18.0514 14.9416 17.5277 14.2682 17.0974C13.2206 16.4053 12.622 15.9751 11.5932 15.3016C10.4147 14.516 11.1817 14.0857 11.8551 13.3936C12.0234 13.2066 15.11 10.4193 15.1661 10.1574C15.1661 10.12 15.1848 10.0078 15.11 9.95168C15.0351 9.89556 14.9416 9.91427 14.8668 9.93297C14.7545 9.95168 13.071 11.074 9.79742 13.2814C9.31106 13.6181 8.88082 13.7677 8.48799 13.7677C8.05774 13.7677 7.23467 13.5246 6.61737 13.3188C5.86912 13.0756 5.27053 12.9447 5.32665 12.5331C5.36406 12.3274 5.66336 12.1029 6.22454 11.8784Z" fill="white"></path>
  </g>
  <defs>
    <linearGradient id="paint0_linear_663_592" x1="0.799805" y1="12.0007" x2="24.8011" y2="12.0007" gradientUnits="userSpaceOnUse">
      <stop stop-color="#2AABEE"></stop>
      <stop offset="1" stop-color="#229ED9"></stop>
    </linearGradient>
    <clipPath id="clip0_663_592">
      <rect width="24" height="24" fill="white" transform="translate(0.799805)"></rect>
    </clipPath>
  </defs>
</svg>