<svg xmlns="http://www.w3.org/2000/svg" width="24" height="24" viewBox="0 0 24 24" fill="none">
  <path d="M21.4789 7.12926C21.4935 7.33967 21.4935 7.55007 21.4935 7.76242C21.4935 14.2327 16.5773 21.6949 7.58797 21.6949V21.691C4.93249 21.6949 2.33216 20.9328 0.0966797 19.4958C0.482809 19.5423 0.870873 19.5656 1.25991 19.5666C3.46055 19.5685 5.59829 18.8287 7.32958 17.4664C5.23829 17.4266 3.40442 16.0604 2.76378 14.0659C3.49636 14.2075 4.2512 14.1784 4.97023 13.9816C2.69023 13.52 1.04991 11.5129 1.04991 9.18194C1.04991 9.16061 1.04991 9.14025 1.04991 9.11989C1.72926 9.49901 2.48991 9.70942 3.26797 9.73269C1.12055 8.29474 0.458615 5.43242 1.75539 3.19454C4.23668 6.25369 7.89765 8.11342 11.8276 8.31026C11.4338 6.60954 11.9718 4.82738 13.2415 3.63184C15.2099 1.77793 18.3057 1.87295 20.156 3.84419C21.2505 3.62796 22.2996 3.22557 23.2596 2.65544C22.8947 3.78892 22.1312 4.75175 21.1112 5.36358C22.0799 5.24917 23.0264 4.98931 23.9176 4.59273C23.2615 5.57787 22.4351 6.43598 21.4789 7.12926Z" fill="#1D9BF0"></path>
</svg>