<svg xmlns="http://www.w3.org/2000/svg" width="25" height="24" viewBox="0 0 25 24" fill="none">
  <g id="WhatsApp svg" clip-path="url(#clip0_663_575)">
    <g id="Icon_Shape">
      <path id="Vector" d="M24.3999 17.9096C24.3999 18.0411 24.3958 18.3247 24.3876 18.5466C24.367 19.0849 24.3259 19.7795 24.2602 20.0959C24.1615 20.5726 24.0177 21.0205 23.8246 21.3945C23.5985 21.8384 23.3109 22.2329 22.9657 22.574C22.6246 22.9151 22.23 23.2027 21.7862 23.4288C21.4122 23.6219 20.9602 23.7658 20.4794 23.8644C20.167 23.926 19.4766 23.9712 18.9424 23.9877C18.7205 23.9959 18.4369 24 18.3054 24H6.4862C6.3547 24 6.07114 23.9959 5.84922 23.9877C5.31086 23.9671 4.61634 23.926 4.2999 23.8603C3.82319 23.7616 3.37524 23.6178 3.00127 23.4247C2.55744 23.1986 2.16292 22.911 1.82182 22.5658C1.48072 22.2247 1.19305 21.8301 0.967026 21.3863C0.773875 21.0123 0.630039 20.5603 0.531409 20.0795C0.469765 19.7671 0.42456 19.0767 0.408122 18.5425C0.404012 18.3247 0.399902 18.0411 0.399902 17.9096V6.09041C0.399902 5.9589 0.404012 5.67534 0.412231 5.45342C0.432779 4.91507 0.473875 4.22055 0.539628 3.90411C0.638259 3.4274 0.782094 2.97945 0.975245 2.60548C1.20127 2.16164 1.48894 1.76712 1.83004 1.42603C2.17114 1.08493 2.56566 0.79726 3.00949 0.571233C3.38346 0.378082 3.83552 0.234247 4.31634 0.135616C4.62867 0.0739726 5.31908 0.0287671 5.85333 0.0123288C6.07524 0.00410959 6.35881 0 6.49031 0H18.3095C18.441 0 18.7246 0.00410959 18.9465 0.0123288C19.4848 0.0328767 20.1794 0.0739726 20.4958 0.139726C20.9725 0.238356 21.4204 0.382192 21.7944 0.575342C22.2383 0.80137 22.6328 1.08904 22.9739 1.43425C23.315 1.77534 23.6026 2.16986 23.8287 2.6137C24.0218 2.98767 24.1657 3.43973 24.2643 3.92055C24.3259 4.23288 24.3711 4.92329 24.3876 5.45753C24.3958 5.67945 24.3999 5.96301 24.3999 6.09452V17.9096Z" fill="url(#paint0_linear_663_575)"></path>
    </g>
    <g id="WA_Logo">
      <g id="Group">
        <path id="Vector_2" fill-rule="evenodd" clip-rule="evenodd" d="M18.7122 5.74525C17.0971 4.13018 14.9478 3.2384 12.6587 3.2384C7.94093 3.2384 4.10669 7.07676 4.10258 11.7905C4.10258 13.2987 4.4971 14.7699 5.24504 16.0644L4.03271 20.4987L8.5697 19.311C9.81902 19.9932 11.2245 20.3507 12.6587 20.3507H12.6629C17.3766 20.3507 21.2149 16.5124 21.219 11.7987C21.219 9.50964 20.3272 7.36032 18.7122 5.74525ZM12.6629 18.9042C11.3848 18.9042 10.1313 18.5589 9.0423 17.9137L8.7834 17.7617L6.09162 18.4685L6.8108 15.8466L6.6423 15.5795C5.93134 14.4494 5.55326 13.1384 5.55326 11.7946C5.55326 7.87402 8.74641 4.68498 12.667 4.68498C14.5656 4.68498 16.3533 5.4247 17.693 6.76854C19.0368 8.11238 19.7766 9.90005 19.7724 11.7987C19.7683 15.7151 16.5793 18.9042 12.6629 18.9042ZM16.5629 13.5822C16.3492 13.4754 15.2971 12.9576 15.1039 12.8877C14.9067 12.8179 14.767 12.7809 14.6231 12.9946C14.4793 13.2083 14.0724 13.6891 13.945 13.8329C13.8218 13.9768 13.6944 13.9932 13.4807 13.8863C13.267 13.7795 12.5766 13.5535 11.7629 12.8261C11.1259 12.259 10.6985 11.5603 10.5752 11.3466C10.4519 11.1329 10.5629 11.0179 10.6697 10.911C10.7642 10.8165 10.8834 10.6603 10.9902 10.537C11.0971 10.4137 11.1341 10.3233 11.2039 10.1795C11.2738 10.0357 11.2409 9.91238 11.1875 9.80553C11.1341 9.69868 10.7067 8.64662 10.53 8.21922C10.3574 7.80416 10.1807 7.85758 10.0492 7.85347C9.92587 7.84525 9.78203 7.84525 9.63819 7.84525C9.49436 7.84525 9.26422 7.89868 9.06696 8.11238C8.8697 8.32607 8.31902 8.84388 8.31902 9.89594C8.31902 10.948 9.0834 11.9631 9.19025 12.1069C9.2971 12.2507 10.6985 14.4083 12.8437 15.3329C13.3533 15.5548 13.7519 15.6863 14.0642 15.785C14.5779 15.9494 15.0423 15.9247 15.4122 15.8713C15.8231 15.8096 16.6779 15.3535 16.8546 14.8562C17.0313 14.359 17.0313 13.9274 16.9779 13.8411C16.9163 13.7425 16.7766 13.6891 16.5629 13.5822Z" fill="white"></path>
      </g>
    </g>
  </g>
  <defs>
    <linearGradient id="paint0_linear_663_575" x1="12.4008" y1="24.0018" x2="12.4008" y2="0" gradientUnits="userSpaceOnUse">
      <stop stop-color="#25CF43"></stop>
      <stop offset="1" stop-color="#61FD7D"></stop>
    </linearGradient>
    <clipPath id="clip0_663_575">
      <rect width="24" height="24" fill="white" transform="translate(0.399902)"></rect>
    </clipPath>
  </defs>
</svg>